# Blender 4.0.2
# www.blender.org
mtllib Drawbar.mtl
o Drawbar
v -318.516632 29.951799 40.224483
v -318.516632 49.979641 40.224483
v -318.516632 29.951799 -40.128605
v -318.516632 49.979641 -40.128605
v -296.850616 29.951799 40.224483
v -296.850616 49.979641 40.224483
v -296.850616 29.951799 -40.128605
v -296.850616 49.979641 -40.128605
v -318.516632 69.826561 40.224483
v -318.516632 69.826561 -40.128605
v -296.850616 69.826561 -40.128605
v -296.850616 69.826561 40.224483
v -298.630035 37.501186 29.966814
v -298.630035 43.642590 29.966814
v -298.630035 37.501186 -29.997822
v -298.630035 43.642590 -29.997822
v -168.630035 37.501186 9.557995
v -168.630035 43.642590 9.557995
v -168.630035 37.501186 -8.837410
v -168.630035 43.642590 -8.837410
v -162.998459 42.578808 -5.125778
v -162.998459 38.232536 -5.125778
v -162.998459 38.232536 5.046247
v -162.998459 42.578808 5.046247
v -150.507843 42.578808 -3.740002
v -152.483810 42.578808 -5.125778
v -152.483810 38.232536 -5.125778
v -150.507843 38.232536 -3.740002
v -150.507843 38.232536 3.660469
v -152.483810 38.232536 5.046247
v -152.483810 42.578808 5.046247
v -150.507843 42.578808 3.660469
v -158.272247 42.578808 -0.026154
v -157.766663 42.578808 -1.692867
v -158.043884 42.578808 -1.174206
v -158.214600 42.578808 -0.611427
v -156.420303 42.578808 -2.797794
v -156.938965 42.578808 -2.520565
v -155.272247 42.578808 -3.026154
v -155.857513 42.578808 -2.968513
v -157.393570 42.578808 -2.147476
v -158.214600 42.578808 0.559116
v -158.043884 42.578808 1.121895
v -156.938965 42.578808 2.468254
v -157.393570 42.578808 2.095165
v -157.766663 42.578808 1.640556
v -155.272247 42.578808 2.973843
v -155.857513 42.578808 2.916203
v -154.686981 42.578808 -2.968513
v -154.686981 42.578808 2.916203
v -156.420303 42.578808 2.745483
v -153.605530 42.578808 2.468254
v -153.605530 42.578808 -2.520565
v -153.150940 42.578808 2.095165
v -153.150940 42.578808 -2.147476
v -152.500610 42.578808 1.121895
v -152.500610 42.578808 -1.174206
v -152.272247 42.578808 -0.026154
v -152.329895 42.578808 0.559116
v -152.329895 42.578808 -0.611427
v -152.777832 42.578808 1.640556
v -152.777832 42.578808 -1.692867
v -154.124207 42.578808 2.745483
v -154.124207 42.578808 -2.797794
v -158.272247 38.232536 -0.026154
v -157.766663 38.232536 1.640556
v -158.043884 38.232536 1.121895
v -158.214600 38.232536 0.559116
v -156.420303 38.232536 2.745483
v -156.938965 38.232536 2.468254
v -154.686981 38.232536 2.916203
v -155.857513 38.232536 2.916203
v -155.272247 38.232536 2.973843
v -157.393570 38.232536 2.095165
v -158.214600 38.232536 -0.611427
v -158.043884 38.232536 -1.174206
v -156.938965 38.232536 -2.520565
v -157.393570 38.232536 -2.147476
v -157.766663 38.232536 -1.692867
v -155.272247 38.232536 -3.026154
v -155.857513 38.232536 -2.968513
v -154.686981 38.232536 -2.968513
v -156.420303 38.232536 -2.797794
v -153.605530 38.232536 2.468254
v -153.605530 38.232536 -2.520565
v -153.150940 38.232536 2.095165
v -153.150940 38.232536 -2.147476
v -152.500610 38.232536 1.121895
v -152.500610 38.232536 -1.174206
v -152.272247 38.232536 -0.026154
v -152.329895 38.232536 0.559116
v -152.329895 38.232536 -0.611427
v -152.777832 38.232536 1.640556
v -152.777832 38.232536 -1.692867
v -154.124207 38.232536 2.745483
v -154.124207 38.232536 -2.797794
v -233.630035 37.501186 29.774805
v -233.630035 37.501186 -29.928814
v -233.630035 43.642590 29.774805
v -233.630035 43.642590 -29.928814
v -298.630035 43.642590 -17.900543
v -298.630035 43.642590 16.930363
v -298.630035 37.501186 16.930363
v -298.630035 37.501186 -17.900543
v -188.897858 37.501186 -4.331268
v -188.897858 37.501186 5.019960
v -233.630035 37.501186 10.390051
v -233.630035 37.501186 -7.212883
v -233.630035 43.642590 10.390051
v -233.630035 43.642590 -7.212883
v -188.897858 43.642590 -4.331268
v -188.897858 43.642590 5.019960
vn -1.0000 -0.0000 -0.0000
vn -0.0000 -0.0000 -1.0000
vn 1.0000 -0.0000 -0.0000
vn -0.0000 -0.0000 1.0000
vn -0.0000 -1.0000 -0.0000
vn -0.0000 1.0000 -0.0000
vn 0.3086 -0.0000 -0.9512
vn 0.1856 0.9826 -0.0000
vn 0.0030 -0.0000 1.0000
vn 0.5503 -0.0000 -0.8350
vn 0.6252 -0.0000 0.7804
vn 0.1288 -0.9917 -0.0000
vn 0.5742 -0.0000 -0.8187
vn 0.5742 -0.0000 0.8187
vn -0.0980 -0.0000 0.9952
vn -0.2903 -0.0000 0.9569
vn -0.4714 -0.0000 0.8819
vn -0.6344 -0.0000 0.7730
vn -0.7730 -0.0000 0.6344
vn -0.8819 -0.0000 0.4714
vn -0.9569 -0.0000 0.2903
vn -0.9952 -0.0000 0.0980
vn -0.9952 -0.0000 -0.0980
vn -0.9569 -0.0000 -0.2903
vn -0.8819 -0.0000 -0.4714
vn -0.7730 -0.0000 -0.6344
vn -0.6344 -0.0000 -0.7730
vn -0.4714 -0.0000 -0.8819
vn -0.2903 -0.0000 -0.9569
vn -0.0980 -0.0000 -0.9952
vn 0.0980 -0.0000 -0.9952
vn 0.2903 -0.0000 -0.9569
vn 0.4714 -0.0000 -0.8819
vn 0.6344 -0.0000 -0.7730
vn 0.7730 -0.0000 -0.6344
vn 0.8819 -0.0000 -0.4714
vn 0.9569 -0.0000 -0.2903
vn 0.9952 -0.0000 -0.0980
vn 0.9952 -0.0000 0.0980
vn 0.9569 -0.0000 0.2903
vn 0.8819 -0.0000 0.4714
vn 0.7730 -0.0000 0.6344
vn 0.6344 -0.0000 0.7730
vn 0.4714 -0.0000 0.8819
vn 0.2903 -0.0000 0.9569
vn 0.0980 -0.0000 0.9952
vn 0.2970 -0.0000 0.9549
vn 0.0011 -0.0000 -1.0000
vn -0.1227 -0.0000 0.9924
vn -0.1079 -0.0000 -0.9942
vt 0.375000 0.000000
vt 0.625000 0.000000
vt 0.625000 0.250000
vt 0.375000 0.250000
vt 0.625000 0.500000
vt 0.375000 0.500000
vt 0.625000 0.750000
vt 0.375000 0.750000
vt 0.625000 1.000000
vt 0.375000 1.000000
vt 0.125000 0.500000
vt 0.125000 0.750000
vt 0.875000 0.500000
vt 0.875000 0.750000
vt 0.375000 0.216502
vt 0.625000 0.216502
vt 0.625000 0.036099
vt 0.375000 0.036099
vt 0.375000 0.375000
vt 0.625000 0.375000
vt 0.375000 0.875000
vt 0.625000 0.875000
vt 0.250000 0.500000
vt 0.250000 0.750000
vt 0.250000 0.684685
vt 0.336023 0.662039
vt 0.336023 0.587602
vt 0.250000 0.576539
vt 0.875000 0.713901
vt 0.750000 0.750000
vt 0.750000 0.684685
vt 0.750000 0.576539
vt 0.750000 0.500000
vt 0.875000 0.533498
vt 0.625000 0.666298
vt 0.625000 0.677471
vt 0.625000 0.715941
vt 0.625000 0.534059
vt 0.625000 0.557215
vt 0.625000 0.564029
vt 0.625000 0.573198
vt 0.625000 0.584371
vt 0.625000 0.597119
vt 0.625000 0.610950
vt 0.625000 0.625335
vt 0.625000 0.639719
vt 0.625000 0.653550
vt 0.625000 0.553020
vt 0.625000 0.686640
vt 0.625000 0.693454
vt 0.625000 0.697649
vt 0.625000 0.699066
vt 0.625000 0.697649
vt 0.625000 0.686640
vt 0.625000 0.677471
vt 0.625000 0.666298
vt 0.625000 0.653550
vt 0.625000 0.625335
vt 0.625000 0.610950
vt 0.625000 0.597119
vt 0.625000 0.584371
vt 0.625000 0.573198
vt 0.625000 0.557215
vt 0.625000 0.553020
vt 0.625000 0.551603
vt 0.375000 0.584371
vt 0.375000 0.573198
vt 0.375000 0.534059
vt 0.375000 0.715941
vt 0.375000 0.693454
vt 0.375000 0.686640
vt 0.375000 0.677471
vt 0.375000 0.666298
vt 0.375000 0.653550
vt 0.375000 0.639719
vt 0.375000 0.625335
vt 0.375000 0.610950
vt 0.375000 0.597119
vt 0.375000 0.697649
vt 0.375000 0.564029
vt 0.375000 0.557215
vt 0.375000 0.553020
vt 0.375000 0.551603
vt 0.375000 0.557215
vt 0.375000 0.564029
vt 0.375000 0.573198
vt 0.375000 0.584371
vt 0.375000 0.597119
vt 0.375000 0.610950
vt 0.375000 0.625335
vt 0.375000 0.639719
vt 0.375000 0.653550
vt 0.375000 0.666298
vt 0.375000 0.677471
vt 0.375000 0.686640
vt 0.375000 0.693454
vt 0.375000 0.699066
vt 0.968750 0.730980
vt 0.968750 0.792394
vt 1.000000 0.792394
vt 1.000000 0.730980
vt 0.937500 0.730980
vt 0.937500 0.792394
vt 0.906250 0.730980
vt 0.906250 0.792394
vt 0.875000 0.792394
vt 0.875000 0.730980
vt 0.843750 0.792394
vt 0.843750 0.730980
vt 0.812500 0.792394
vt 0.812500 0.730980
vt 0.781250 0.792394
vt 0.781250 0.730980
vt 0.750000 0.792394
vt 0.750000 0.730980
vt 0.718750 0.792394
vt 0.718750 0.730980
vt 0.687500 0.792394
vt 0.687500 0.730980
vt 0.656250 0.792394
vt 0.656250 0.730980
vt 0.625000 0.792394
vt 0.625000 0.730980
vt 0.593750 0.792394
vt 0.593750 0.730980
vt 0.562500 0.792394
vt 0.562500 0.730980
vt 0.531250 0.792394
vt 0.531250 0.730980
vt 0.500000 0.792394
vt 0.500000 0.730980
vt 0.468750 0.792394
vt 0.468750 0.730980
vt 0.437500 0.792394
vt 0.437500 0.730980
vt 0.406250 0.792394
vt 0.406250 0.730980
vt 0.375000 0.730980
vt 0.375000 0.792394
vt 0.343750 0.730980
vt 0.343750 0.792394
vt 0.312500 0.730980
vt 0.312500 0.792394
vt 0.281250 0.730980
vt 0.281250 0.792394
vt 0.250000 0.730980
vt 0.250000 0.792394
vt 0.218750 0.730980
vt 0.218750 0.792394
vt 0.187500 0.730980
vt 0.187500 0.792394
vt 0.156250 0.730980
vt 0.156250 0.792394
vt 0.125000 0.730980
vt 0.125000 0.792394
vt 0.093750 0.730980
vt 0.093750 0.792394
vt 0.062500 0.730980
vt 0.062500 0.792394
vt 0.031250 0.730980
vt 0.031250 0.792394
vt 0.000000 0.730980
vt 0.000000 0.792394
vt 0.663977 0.587602
vt 0.663977 0.662039
vt 0.125000 0.713901
vt 0.125000 0.533498
vt 0.464746 0.406541
vt 0.464746 0.500000
vt 0.541514 0.500000
vt 0.541514 0.406541
vt 0.541514 0.270736
vt 0.464746 0.270736
vt 0.464746 0.750000
vt 0.541514 0.750000
vt 0.464746 0.843459
vt 0.464746 0.979264
vt 0.541514 0.979264
vt 0.541514 0.843459
s 0
usemtl black
f 1/1/1 2/2/1 4/3/1 3/4/1
f 3/4/2 4/3/2 8/5/2 7/6/2
f 7/6/3 8/5/3 6/7/3 5/8/3
f 5/8/4 6/7/4 2/9/4 1/10/4
f 3/11/5 7/6/5 5/8/5 1/12/5
f 4/3/1 2/2/1 9/2/1 10/3/1
f 11/5/6 10/13/6 9/14/6 12/7/6
f 2/9/4 6/7/4 12/7/4 9/9/4
f 8/5/2 4/3/2 10/3/2 11/5/2
f 6/7/3 8/5/3 11/5/3 12/7/3
f 16/3/1 15/4/1 104/15/1 101/16/1
f 13/1/1 14/2/1 102/17/1 103/18/1
f 98/19/7 100/20/7 20/5/7 19/6/7
f 20/5/8 18/7/8 24/7/8 21/5/8
f 97/21/9 99/22/9 14/9/9 13/10/9
f 98/23/5 19/6/5 17/8/5 97/24/5 107/25/5 106/26/5 105/27/5 108/28/5
f 102/29/6 14/14/6 99/30/6 109/31/6
f 110/32/6 100/33/6 16/13/6 101/34/6
f 19/6/10 20/5/10 21/5/10 22/6/10
f 18/7/11 17/8/11 23/8/11 24/7/11
f 17/8/12 19/6/12 22/6/12 23/8/12
f 61/35/6 54/36/6 32/37/6 25/38/6 26/5/6 64/39/6 53/40/6 55/41/6 62/42/6 57/43/6 60/44/6 58/45/6 59/46/6 56/47/6
f 49/48/6 64/39/6 26/5/6 21/5/6 24/7/6 31/7/6 32/37/6 54/36/6 52/49/6 63/50/6 50/51/6 47/52/6 48/53/6 51/50/6 44/54/6 45/55/6 46/56/6 43/57/6 42/46/6 33/58/6 36/59/6 35/60/6 34/61/6 41/62/6 38/40/6 37/63/6 40/64/6 39/65/6
f 24/7/4 23/8/4 30/8/4 31/7/4
f 94/66/5 87/67/5 28/68/5 29/69/5 30/8/5 95/70/5 84/71/5 86/72/5 93/73/5 88/74/5 91/75/5 90/76/5 92/77/5 89/78/5
f 71/79/5 95/70/5 30/8/5 23/8/5 22/6/5 27/6/5 28/68/5 87/67/5 85/80/5 96/81/5 82/82/5 80/83/5 81/82/5 83/84/5 77/85/5 78/86/5 79/87/5 76/88/5 75/89/5 65/90/5 68/91/5 67/92/5 66/93/5 74/94/5 70/95/5 69/96/5 72/79/5 73/97/5
f 28/68/3 25/38/3 32/37/3 29/69/3
f 25/38/13 28/68/13 27/6/13 26/5/13
f 31/7/14 30/8/14 29/69/14 32/37/14
f 22/6/2 21/5/2 26/5/2 27/6/2
f 82/98/15 49/99/15 39/100/15 80/101/15
f 96/102/16 64/103/16 49/99/16 82/98/16
f 85/104/17 53/105/17 64/103/17 96/102/17
f 55/106/18 53/105/18 85/104/18 87/107/18
f 62/108/19 55/106/19 87/107/19 94/109/19
f 57/110/20 62/108/20 94/109/20 89/111/20
f 60/112/21 57/110/21 89/111/21 92/113/21
f 58/114/22 60/112/22 92/113/22 90/115/22
f 59/116/23 58/114/23 90/115/23 91/117/23
f 56/118/24 59/116/24 91/117/24 88/119/24
f 61/120/25 56/118/25 88/119/25 93/121/25
f 54/122/26 61/120/26 93/121/26 86/123/26
f 52/124/27 54/122/27 86/123/27 84/125/27
f 63/126/28 52/124/28 84/125/28 95/127/28
f 50/128/29 63/126/29 95/127/29 71/129/29
f 47/130/30 50/128/30 71/129/30 73/131/30
f 48/132/31 47/130/31 73/131/31 72/133/31
f 51/134/32 48/132/32 72/133/32 69/135/32
f 44/136/33 51/134/33 69/135/33 70/137/33
f 74/138/34 45/139/34 44/136/34 70/137/34
f 66/140/35 46/141/35 45/139/35 74/138/35
f 67/142/36 43/143/36 46/141/36 66/140/36
f 68/144/37 42/145/37 43/143/37 67/142/37
f 65/146/38 33/147/38 42/145/38 68/144/38
f 75/148/39 36/149/39 33/147/39 65/146/39
f 76/150/40 35/151/40 36/149/40 75/148/40
f 79/152/41 34/153/41 35/151/41 76/150/41
f 78/154/42 41/155/42 34/153/42 79/152/42
f 77/156/43 38/157/43 41/155/43 78/154/43
f 83/158/44 37/159/44 38/157/44 77/156/44
f 81/160/45 40/161/45 37/159/45 83/158/45
f 80/162/46 39/163/46 40/161/46 81/160/46
f 109/31/6 99/30/6 18/7/6 20/5/6 100/33/6 110/32/6 111/164/6 112/165/6
f 97/24/5 13/12/5 103/166/5 107/25/5
f 104/167/5 15/11/5 98/23/5 108/28/5
f 17/8/47 18/7/47 99/22/47 97/21/47
f 15/4/48 16/3/48 100/20/48 98/19/48
f 108/168/49 105/169/49 111/170/49 110/171/49 101/172/49 104/173/49
f 105/169/1 106/174/1 112/175/1 111/170/1
f 106/174/50 107/176/50 103/177/50 102/178/50 109/179/50 112/175/50
