# Blender 4.0.2
# www.blender.org
mtllib Trailerl.mtl
o Trailer
v -518.010132 29.951799 40.224483
v -518.010132 49.979641 40.224483
v -518.010132 29.951799 -40.128605
v -518.010132 49.979641 -40.128605
v -496.344116 29.951799 40.224483
v -496.344116 49.979641 40.224483
v -496.344116 29.951799 -40.128605
v -496.344116 49.979641 -40.128605
v -518.010132 69.826561 40.224483
v -518.010132 69.826561 -40.128605
v -496.344116 69.826561 -40.128605
v -496.344116 69.826561 40.224483
v -518.010132 89.909576 40.224483
v -518.010132 89.909576 -40.128605
v -496.344116 89.909576 -40.128605
v -496.344116 89.909576 40.224483
v -268.353363 69.826561 -40.128605
v -268.353363 69.826561 40.224483
v -268.353363 89.909576 -40.128605
v -268.353363 89.909576 40.224483
v -548.420776 69.826561 40.224483
v -548.420776 69.826561 -40.128605
v -548.420776 89.909576 40.224483
v -548.420776 89.909576 -40.128605
v -496.344116 69.826561 69.923752
v -518.010132 69.826561 69.923752
v -496.344116 89.909576 69.923752
v -518.010132 89.909576 69.923752
v -268.353363 89.909576 69.923752
v -268.353363 69.826561 69.923752
v -548.420776 69.826561 69.923752
v -548.420776 89.909576 69.923752
v -518.010132 69.826561 -69.827866
v -496.344116 69.826561 -69.827866
v -518.010132 89.909576 -69.827866
v -496.344116 89.909576 -69.827866
v -268.353363 69.826561 -69.827866
v -268.353363 89.909576 -69.827866
v -548.420776 89.909576 -69.827866
v -548.420776 69.826561 -69.827866
v -518.877625 66.874443 40.224483
v -518.877625 66.874443 -40.128605
v -548.369446 69.826561 40.224483
v -548.369446 69.826561 -40.128605
v -549.873169 29.951799 -40.128605
v -549.873169 29.951799 40.224483
v -549.873169 49.979641 40.224483
v -549.873169 49.979641 -40.128605
v -564.574341 34.957302 9.973843
v -564.574341 46.000114 9.973843
v -564.574341 34.957302 -10.026157
v -564.574341 46.000114 -10.026157
v -544.574341 34.957302 9.973843
v -544.574341 46.000114 9.973843
v -544.574341 34.957302 -10.026157
v -544.574341 46.000114 -10.026157
v -564.574341 37.451565 9.973843
v -564.574341 43.451565 9.973843
v -564.574341 37.451565 -10.026157
v -564.574341 43.451565 -10.026157
v -553.977905 43.451565 -10.026157
v -553.977905 37.451565 -10.026157
v -553.977905 43.451565 9.973843
v -553.977905 37.451565 9.973843
v -562.056763 34.957302 -0.026157
v -561.999146 34.957302 0.559114
v -561.999146 34.957302 -0.611428
v -561.828430 34.957302 1.121893
v -561.551147 34.957302 -1.692868
v -561.551147 34.957302 1.640553
v -561.828430 34.957302 -1.174208
v -561.178101 34.957302 2.095163
v -560.491272 34.957302 -2.644678
v -560.723450 34.957302 -2.520566
v -559.642029 34.957302 2.916198
v -560.204834 34.957302 2.745481
v -559.642029 34.957302 -2.968513
v -560.723450 34.957302 2.468251
v -560.204834 34.957302 -2.797796
v -561.178101 34.957302 -2.147478
v -558.471497 34.957302 2.916198
v -558.471497 34.957302 -2.968513
v -557.390076 34.957302 2.468251
v -557.390076 34.957302 -2.520566
v -557.908691 34.957302 2.745481
v -557.908691 34.957302 -2.797796
v -556.562378 34.957302 1.640553
v -556.562378 34.957302 -1.692868
v -556.056763 34.957302 -0.026157
v -556.114380 34.957302 -0.611428
v -556.114380 34.957302 0.559114
v -556.285095 34.957302 -1.174208
v -556.285095 34.957302 1.121893
v -556.935425 34.957302 -2.147478
v -556.935425 34.957302 2.095163
v -559.056763 34.957302 2.973843
v -559.056763 34.957302 -3.026157
v -562.056763 46.000114 -0.026157
v -561.999146 46.000114 0.559114
v -561.999146 46.000114 -0.611428
v -561.551147 46.000114 1.640553
v -561.828430 46.000114 -1.174208
v -561.828430 46.000114 1.121893
v -561.551147 46.000114 -1.692868
v -560.723450 46.000114 2.468251
v -560.551575 46.000114 2.560141
v -561.178101 46.000114 -2.147478
v -559.642029 46.000114 -2.968513
v -559.642029 46.000114 2.916198
v -560.204834 46.000114 -2.797796
v -560.204834 46.000114 2.745481
v -560.723450 46.000114 -2.520566
v -561.178101 46.000114 2.095163
v -558.471497 46.000114 2.916198
v -558.471497 46.000114 -2.968513
v -557.390076 46.000114 2.468251
v -557.390076 46.000114 -2.520566
v -557.908691 46.000114 2.745481
v -557.908691 46.000114 -2.797796
v -556.562378 46.000114 1.640553
v -556.562378 46.000114 -1.692868
v -556.056763 46.000114 -0.026157
v -556.114380 46.000114 -0.611428
v -556.114380 46.000114 0.559114
v -556.285095 46.000114 -1.174208
v -556.285095 46.000114 1.121893
v -556.935425 46.000114 -2.147478
v -556.935425 46.000114 2.095163
v -559.056763 46.000114 2.973843
v -559.056763 46.000114 -3.026157
v -562.056763 37.451565 -0.026157
v -561.999146 37.451565 0.559114
v -561.999146 37.451565 -0.611428
v -561.551147 37.451565 1.640553
v -561.551147 37.451565 -1.692868
v -561.178101 37.451565 2.095163
v -561.828430 37.451565 1.121893
v -561.828430 37.451565 -1.174208
v -560.204834 37.451565 2.745481
v -560.723450 37.451565 2.468251
v -560.723450 37.451565 -2.520566
v -559.056763 37.451565 2.973843
v -557.829956 37.451565 2.703383
v -557.908691 37.451565 2.745481
v -558.471497 37.451565 2.916198
v -559.642029 37.451565 2.916198
v -561.178101 37.451565 -2.147478
v -560.204834 37.451565 -2.797796
v -559.056763 37.451565 -3.026157
v -559.642029 37.451565 -2.968513
v -557.908691 37.451565 -2.797796
v -557.390076 37.451565 2.468251
v -557.390076 37.451565 -2.520566
v -558.471497 37.451565 -2.968513
v -556.562378 37.451565 1.640553
v -556.562378 37.451565 -1.692868
v -556.056763 37.451565 -0.026157
v -556.114380 37.451565 0.559114
v -556.114380 37.451565 -0.611428
v -556.285095 37.451565 -1.174208
v -556.935425 37.451565 2.095163
v -556.285095 37.451565 1.121893
v -556.935425 37.451565 -2.147478
v -562.056763 43.451565 -0.026157
v -561.999146 43.451565 -0.611428
v -561.999146 43.451565 0.559114
v -561.551147 43.451565 1.640553
v -561.551147 43.451565 -1.692868
v -561.178101 43.451565 2.095163
v -561.828430 43.451565 1.121893
v -561.828430 43.451565 -1.174208
v -560.204834 43.451565 -2.797796
v -560.723450 43.451565 2.468251
v -560.723450 43.451565 -2.520566
v -559.056763 43.451565 -3.026157
v -557.908691 43.451565 -2.797796
v -557.829956 43.451565 -2.755698
v -558.471497 43.451565 -2.968513
v -559.642029 43.451565 -2.968513
v -561.178101 43.451565 -2.147478
v -560.204834 43.451565 2.745481
v -559.056763 43.451565 2.973843
v -559.642029 43.451565 2.916198
v -557.908691 43.451565 2.745481
v -557.390076 43.451565 -2.520566
v -557.390076 43.451565 2.468251
v -558.471497 43.451565 2.916198
v -556.562378 43.451565 1.640553
v -556.562378 43.451565 -1.692868
v -556.056763 43.451565 -0.026157
v -556.114380 43.451565 0.559114
v -556.114380 43.451565 -0.611428
v -556.285095 43.451565 -1.174208
v -556.935425 43.451565 2.095163
v -556.285095 43.451565 1.121893
v -556.935425 43.451565 -2.147478
v -550.666748 43.451565 -10.026157
v -550.666748 37.451565 -10.026157
v -550.666748 43.451565 9.973843
v -550.666748 37.451565 9.973843
vn -0.0000 1.0000 -0.0000
vn -0.0000 -0.0000 -1.0000
vn 1.0000 -0.0000 -0.0000
vn -0.0000 -0.0000 1.0000
vn -0.0000 -1.0000 -0.0000
vn -1.0000 -0.0000 -0.0000
vn -0.0996 -0.9950 -0.0000
vn -0.9987 -0.0513 -0.0000
vn -0.0980 -0.0000 0.9952
vn -0.2903 -0.0000 0.9569
vn -0.4714 -0.0000 0.8819
vn -0.6344 -0.0000 0.7730
vn -0.7730 -0.0000 0.6344
vn -0.8819 -0.0000 0.4714
vn -0.9569 -0.0000 0.2903
vn -0.9952 -0.0000 0.0980
vn -0.9952 -0.0000 -0.0980
vn -0.9569 -0.0000 -0.2903
vn -0.8819 -0.0000 -0.4714
vn -0.7730 -0.0000 -0.6344
vn -0.6344 -0.0000 -0.7730
vn -0.4714 -0.0000 -0.8819
vn -0.2903 -0.0000 -0.9569
vn -0.0980 -0.0000 -0.9952
vn 0.0980 -0.0000 -0.9952
vn 0.2903 -0.0000 -0.9569
vn 0.4714 -0.0000 -0.8819
vn 0.6344 -0.0000 -0.7730
vn 0.7730 -0.0000 -0.6344
vn 0.8819 -0.0000 -0.4714
vn 0.9569 -0.0000 -0.2903
vn 0.9952 -0.0000 -0.0980
vn 0.9952 -0.0000 0.0980
vn 0.9569 -0.0000 0.2903
vn 0.8819 -0.0000 0.4714
vn 0.7730 -0.0000 0.6344
vn 0.6344 -0.0000 0.7730
vn 0.4714 -0.0000 0.8819
vn 0.2903 -0.0000 0.9569
vn 0.0980 -0.0000 0.9952
vt 0.625000 0.000000
vt 0.625000 0.250000
vt 0.375000 0.250000
vt 0.625000 0.500000
vt 0.375000 0.500000
vt 0.625000 0.750000
vt 0.375000 0.750000
vt 0.625000 1.000000
vt 0.375000 1.000000
vt 0.125000 0.500000
vt 0.125000 0.750000
vt 0.875000 0.500000
vt 0.875000 0.750000
vt 0.375000 0.000000
vt 0.567303 0.250000
vt 0.567303 0.000000
vt 0.431468 0.000000
vt 0.431468 0.250000
vt 0.431468 0.382455
vt 0.567303 0.382455
vt 0.431468 0.867545
vt 0.431468 1.000000
vt 0.567303 1.000000
vt 0.567303 0.867545
vt 0.173136 0.656180
vt 0.176038 0.592268
vt 0.173136 0.593820
vt 0.167453 0.598484
vt 0.162790 0.604166
vt 0.159324 0.610649
vt 0.157190 0.617684
vt 0.156470 0.625000
vt 0.157190 0.632316
vt 0.159324 0.639351
vt 0.162790 0.645834
vt 0.167453 0.651517
vt 0.179619 0.659646
vt 0.186654 0.661779
vt 0.193970 0.662500
vt 0.201286 0.661780
vt 0.208320 0.659646
vt 0.214804 0.656180
vt 0.220486 0.651516
vt 0.225150 0.645834
vt 0.228615 0.639351
vt 0.230749 0.632316
vt 0.231470 0.625000
vt 0.230749 0.617684
vt 0.228615 0.610649
vt 0.225150 0.604166
vt 0.220486 0.598484
vt 0.214804 0.593820
vt 0.208320 0.590354
vt 0.201286 0.588221
vt 0.193970 0.587500
vt 0.186654 0.588221
vt 0.179619 0.590355
vt 0.820381 0.659646
vt 0.824715 0.657329
vt 0.826864 0.593820
vt 0.820381 0.590355
vt 0.813346 0.588221
vt 0.806030 0.587500
vt 0.798714 0.588221
vt 0.791680 0.590355
vt 0.785196 0.593820
vt 0.779514 0.598484
vt 0.774850 0.604166
vt 0.771385 0.610649
vt 0.769251 0.617684
vt 0.768530 0.625000
vt 0.769251 0.632316
vt 0.771385 0.639351
vt 0.774850 0.645834
vt 0.779514 0.651516
vt 0.785196 0.656180
vt 0.791680 0.659646
vt 0.798714 0.661779
vt 0.806030 0.662500
vt 0.813346 0.661779
vt 0.826864 0.656180
vt 0.832547 0.651516
vt 0.837210 0.645834
vt 0.840676 0.639351
vt 0.842810 0.632316
vt 0.843530 0.625000
vt 0.842810 0.617684
vt 0.840676 0.610649
vt 0.837210 0.604166
vt 0.832547 0.598484
vt 0.310799 0.652836
vt 0.375000 0.693861
vt 0.375000 0.581008
vt 0.309487 0.621795
vt 0.318131 0.623359
vt 0.325708 0.625465
vt 0.331926 0.628030
vt 0.336546 0.630956
vt 0.339392 0.634132
vt 0.340352 0.637434
vt 0.339392 0.640737
vt 0.336546 0.643912
vt 0.331926 0.646839
vt 0.325708 0.649404
vt 0.318131 0.651509
vt 0.198393 0.581008
vt 0.198393 0.693861
vt 0.309487 0.653074
vt 0.300107 0.654037
vt 0.290352 0.654362
vt 0.280598 0.654037
vt 0.271218 0.653074
vt 0.262574 0.651509
vt 0.254997 0.649404
vt 0.248779 0.646839
vt 0.244158 0.643912
vt 0.241313 0.640737
vt 0.240352 0.637434
vt 0.241313 0.634132
vt 0.244158 0.630956
vt 0.248779 0.628030
vt 0.254997 0.625465
vt 0.262574 0.623359
vt 0.271218 0.621795
vt 0.280598 0.620832
vt 0.290352 0.620507
vt 0.300107 0.620832
vt 0.690513 0.653074
vt 0.625000 0.693861
vt 0.801607 0.693861
vt 0.801607 0.581008
vt 0.625000 0.581008
vt 0.689201 0.622033
vt 0.690513 0.621795
vt 0.699893 0.620832
vt 0.709648 0.620507
vt 0.719402 0.620832
vt 0.728782 0.621795
vt 0.737426 0.623359
vt 0.745003 0.625465
vt 0.751221 0.628030
vt 0.755842 0.630956
vt 0.758687 0.634132
vt 0.759648 0.637434
vt 0.758687 0.640737
vt 0.755842 0.643912
vt 0.751221 0.646839
vt 0.745003 0.649404
vt 0.737426 0.651509
vt 0.728782 0.653074
vt 0.719402 0.654037
vt 0.709648 0.654362
vt 0.699893 0.654037
vt 0.681869 0.651509
vt 0.674292 0.649404
vt 0.668074 0.646839
vt 0.663454 0.643912
vt 0.660608 0.640737
vt 0.659648 0.637434
vt 0.660608 0.634132
vt 0.663454 0.630956
vt 0.668074 0.628030
vt 0.674292 0.625465
vt 0.681869 0.623359
vt 1.000000 0.748786
vt 1.000000 0.723844
vt 0.968750 0.723844
vt 0.968750 0.748786
vt 0.968750 0.808786
vt 0.968750 0.834272
vt 1.000000 0.834272
vt 1.000000 0.808786
vt 0.937500 0.723844
vt 0.937500 0.748786
vt 0.937500 0.808786
vt 0.937500 0.834272
vt 0.906250 0.723844
vt 0.906250 0.748786
vt 0.906250 0.808786
vt 0.906250 0.834272
vt 0.932755 0.808786
vt 0.875000 0.723844
vt 0.875000 0.748786
vt 0.875000 0.808786
vt 0.875000 0.834272
vt 0.843750 0.723844
vt 0.843750 0.748786
vt 0.843750 0.834272
vt 0.843750 0.808786
vt 0.812500 0.723844
vt 0.812500 0.748786
vt 0.812500 0.834272
vt 0.812500 0.808786
vt 0.781250 0.723844
vt 0.781250 0.748786
vt 0.781250 0.834272
vt 0.781250 0.808786
vt 0.750000 0.723844
vt 0.750000 0.748786
vt 0.750000 0.834272
vt 0.750000 0.808786
vt 0.718750 0.723844
vt 0.718750 0.748786
vt 0.718750 0.834272
vt 0.718750 0.808786
vt 0.687500 0.723844
vt 0.687500 0.748786
vt 0.687500 0.834272
vt 0.687500 0.808786
vt 0.656250 0.723844
vt 0.656250 0.748786
vt 0.656250 0.834272
vt 0.656250 0.808786
vt 0.625000 0.723844
vt 0.625000 0.748786
vt 0.625000 0.834272
vt 0.625000 0.808786
vt 0.593750 0.723844
vt 0.593750 0.748786
vt 0.593750 0.834272
vt 0.593750 0.808786
vt 0.562500 0.723844
vt 0.562500 0.748786
vt 0.567245 0.748786
vt 0.562500 0.834272
vt 0.562500 0.808786
vt 0.531250 0.723844
vt 0.531250 0.748786
vt 0.531250 0.834272
vt 0.531250 0.808786
vt 0.500000 0.723844
vt 0.500000 0.748786
vt 0.500000 0.834272
vt 0.500000 0.808786
vt 0.468750 0.723844
vt 0.468750 0.748786
vt 0.468750 0.834272
vt 0.468750 0.808786
vt 0.437500 0.723844
vt 0.437500 0.748786
vt 0.437500 0.834272
vt 0.437500 0.808786
vt 0.406250 0.723844
vt 0.406250 0.748786
vt 0.406250 0.834272
vt 0.416608 0.834272
vt 0.406250 0.808786
vt 0.375000 0.723844
vt 0.375000 0.748786
vt 0.375000 0.834272
vt 0.375000 0.808786
vt 0.343750 0.723844
vt 0.343750 0.748786
vt 0.343750 0.808786
vt 0.343750 0.834272
vt 0.312500 0.723844
vt 0.312500 0.748786
vt 0.312500 0.808786
vt 0.312500 0.834272
vt 0.281250 0.723844
vt 0.281250 0.748786
vt 0.281250 0.808786
vt 0.281250 0.834272
vt 0.250000 0.723844
vt 0.250000 0.748786
vt 0.250000 0.808786
vt 0.250000 0.834272
vt 0.218750 0.723844
vt 0.218750 0.748786
vt 0.218750 0.808786
vt 0.218750 0.834272
vt 0.187500 0.723844
vt 0.187500 0.748786
vt 0.187500 0.808786
vt 0.187500 0.834272
vt 0.156250 0.723844
vt 0.156250 0.748786
vt 0.156250 0.808786
vt 0.156250 0.834272
vt 0.125000 0.723844
vt 0.125000 0.748786
vt 0.125000 0.808786
vt 0.125000 0.834272
vt 0.093750 0.723844
vt 0.093750 0.748786
vt 0.093750 0.808786
vt 0.093750 0.834272
vt 0.079760 0.723844
vt 0.062500 0.723844
vt 0.062500 0.748786
vt 0.062500 0.808786
vt 0.062500 0.834272
vt 0.031250 0.723844
vt 0.031250 0.748786
vt 0.031250 0.808786
vt 0.031250 0.834272
vt 0.000000 0.723844
vt 0.000000 0.748786
vt 0.000000 0.808786
vt 0.000000 0.834272
s 0
usemtl black
f 2/1/1 4/2/1 48/2/1 47/1/1
f 3/3/2 4/2/2 8/4/2 7/5/2
f 7/5/3 8/4/3 6/6/3 5/7/3
f 5/7/4 6/6/4 2/8/4 1/9/4
f 3/10/5 7/5/5 5/7/5 1/11/5
f 2/8/4 9/8/4 43/8/4 41/8/4
f 10/2/5 22/2/5 40/2/5 33/2/5
f 2/8/4 6/6/4 12/6/4 9/8/4
f 8/4/2 4/2/2 10/2/2 11/4/2
f 6/6/3 8/4/3 11/4/3 12/6/3
f 15/4/1 14/12/1 13/13/1 16/6/1
f 13/13/1 14/12/1 24/12/1 23/13/1
f 23/1/6 21/1/6 31/1/6 32/1/6
f 17/4/5 11/4/5 34/4/5 37/4/5
f 18/6/3 17/4/3 19/4/3 20/6/3
f 15/4/1 16/6/1 20/6/1 19/4/1
f 12/6/5 11/4/5 17/4/5 18/6/5
f 18/6/3 20/6/3 29/6/3 30/6/3
f 22/2/6 21/1/6 23/1/6 24/2/6
f 11/4/5 10/2/5 33/2/5 34/4/5
f 10/2/5 9/1/5 21/1/5 22/2/5
f 12/6/5 18/6/5 30/6/5 25/6/5
f 26/8/4 25/6/4 27/6/4 28/8/4
f 27/6/4 25/6/4 30/6/4 29/6/4
f 26/8/4 28/8/4 32/8/4 31/8/4
f 16/6/1 13/13/1 28/13/1 27/6/1
f 20/6/1 16/6/1 27/6/1 29/6/1
f 21/1/5 9/1/5 26/1/5 31/1/5
f 13/13/1 23/13/1 32/13/1 28/13/1
f 9/8/5 12/6/5 25/6/5 26/8/5
f 34/4/2 36/4/2 38/4/2 37/4/2
f 34/4/2 33/2/2 35/2/2 36/4/2
f 35/2/2 33/2/2 40/2/2 39/2/2
f 24/12/1 14/12/1 35/12/1 39/12/1
f 14/12/1 15/4/1 36/4/1 35/12/1
f 15/4/1 19/4/1 38/4/1 36/4/1
f 19/4/3 17/4/3 37/4/3 38/4/3
f 22/2/6 24/2/6 39/2/6 40/2/6
f 42/2/7 41/1/7 43/1/7 44/2/7
f 9/1/1 10/2/1 44/2/1 43/1/1
f 10/2/2 4/2/2 42/2/2 44/2/2
f 4/2/8 2/1/8 41/1/8 42/2/8
f 46/14/6 47/1/6 48/2/6 45/3/6
f 3/10/5 1/11/5 46/11/5 45/10/5
f 4/2/2 3/3/2 45/3/2 48/2/2
f 1/9/4 2/8/4 47/8/4 46/9/4
f 50/1/6 52/2/6 60/15/6 58/16/6
f 51/3/6 49/14/6 57/17/6 59/18/6
f 60/15/2 52/2/2 56/4/2 55/5/2 51/3/2 59/18/2 62/19/2 61/20/2
f 55/5/3 56/4/3 54/6/3 53/7/3
f 64/21/4 57/22/4 49/9/4 53/7/4 54/6/4 50/8/4 58/23/4 63/24/4
f 78/25/5 49/11/5 51/10/5 73/26/5 74/27/5 80/28/5 69/29/5 71/30/5 67/31/5 65/32/5 66/33/5 68/34/5 70/35/5 72/36/5
f 73/26/5 51/10/5 55/5/5 53/7/5 49/11/5 78/25/5 76/37/5 75/38/5 96/39/5 81/40/5 85/41/5 83/42/5 95/43/5 87/44/5 93/45/5 91/46/5 89/47/5 90/48/5 92/49/5 88/50/5 94/51/5 84/52/5 86/53/5 82/54/5 97/55/5 77/56/5 79/57/5
f 111/58/1 106/59/1 50/13/1 54/6/1 56/4/1 52/12/1 112/60/1 110/61/1 108/62/1 130/63/1 115/64/1 119/65/1 117/66/1 127/67/1 121/68/1 125/69/1 123/70/1 122/71/1 124/72/1 126/73/1 120/74/1 128/75/1 116/76/1 118/77/1 114/78/1 129/79/1 109/80/1
f 112/60/1 52/12/1 50/13/1 106/59/1 105/81/1 113/82/1 101/83/1 103/84/1 99/85/1 98/86/1 100/87/1 102/88/1 104/89/1 107/90/1
f 64/21/2 63/24/2 199/24/2 200/21/2
f 149/165/9 97/166/9 82/167/9 154/168/9
f 178/169/9 115/170/9 130/171/9 175/172/9
f 154/168/10 82/167/10 86/173/10 151/174/10
f 176/175/10 119/176/10 115/170/10 178/169/10
f 151/174/11 86/173/11 84/177/11 153/178/11
f 185/179/11 117/180/11 119/176/11 176/175/11 177/181/11
f 153/178/12 84/177/12 94/182/12 163/183/12
f 196/184/12 127/185/12 117/180/12 185/179/12
f 94/182/13 88/186/13 156/187/13 163/183/13
f 121/188/13 127/185/13 196/184/13 189/189/13
f 88/186/14 92/190/14 160/191/14 156/187/14
f 125/192/14 121/188/14 189/189/14 193/193/14
f 92/190/15 90/194/15 159/195/15 160/191/15
f 123/196/15 125/192/15 193/193/15 192/197/15
f 90/194/16 89/198/16 157/199/16 159/195/16
f 122/200/16 123/196/16 192/197/16 190/201/16
f 89/198/17 91/202/17 158/203/17 157/199/17
f 124/204/17 122/200/17 190/201/17 191/205/17
f 91/202/18 93/206/18 162/207/18 158/203/18
f 126/208/18 124/204/18 191/205/18 195/209/18
f 93/206/19 87/210/19 155/211/19 162/207/19
f 120/212/19 126/208/19 195/209/19 188/213/19
f 87/210/20 95/214/20 161/215/20 155/211/20
f 128/216/20 120/212/20 188/213/20 194/217/20
f 95/214/21 83/218/21 152/219/21 161/215/21
f 116/220/21 128/216/21 194/217/21 186/221/21
f 83/218/22 85/222/22 144/223/22 143/224/22 152/219/22
f 118/225/22 116/220/22 186/221/22 184/226/22
f 85/222/23 81/227/23 145/228/23 144/223/23
f 114/229/23 118/225/23 184/226/23 187/230/23
f 81/227/24 96/231/24 142/232/24 145/228/24
f 129/233/24 114/229/24 187/230/24 182/234/24
f 96/231/25 75/235/25 146/236/25 142/232/25
f 109/237/25 129/233/25 182/234/25 183/238/25
f 75/235/26 76/239/26 139/240/26 146/236/26
f 111/241/26 109/237/26 183/238/26 181/242/26
f 76/239/27 78/243/27 140/244/27 139/240/27
f 105/245/27 106/246/27 111/241/27 181/242/27 173/247/27
f 78/243/28 72/248/28 136/249/28 140/244/28
f 113/250/28 105/245/28 173/247/28 169/251/28
f 136/249/29 72/248/29 70/252/29 134/253/29
f 167/254/29 101/255/29 113/250/29 169/251/29
f 134/253/30 70/252/30 68/256/30 137/257/30
f 170/258/30 103/259/30 101/255/30 167/254/30
f 137/257/31 68/256/31 66/260/31 132/261/31
f 166/262/31 99/263/31 103/259/31 170/258/31
f 132/261/32 66/260/32 65/264/32 131/265/32
f 164/266/32 98/267/32 99/263/32 166/262/32
f 131/265/33 65/264/33 67/268/33 133/269/33
f 165/270/33 100/271/33 98/267/33 164/266/33
f 133/269/34 67/268/34 71/272/34 138/273/34
f 171/274/34 102/275/34 100/271/34 165/270/34
f 138/273/35 71/272/35 69/276/35 135/277/35
f 168/278/35 104/279/35 102/275/35 171/274/35
f 135/277/36 69/276/36 80/280/36 147/281/36
f 180/282/36 107/283/36 104/279/36 168/278/36
f 147/281/37 80/280/37 74/284/37 141/285/37
f 174/286/37 112/287/37 107/283/37 180/282/37
f 141/285/38 74/284/38 73/288/38 79/289/38 148/290/38
f 172/291/38 110/292/38 112/287/38 174/286/38
f 148/290/39 79/289/39 77/293/39 150/294/39
f 179/295/39 108/296/39 110/292/39 172/291/39
f 150/294/40 77/293/40 97/297/40 149/298/40
f 175/299/40 130/300/40 108/296/40 179/295/40
f 61/20/4 62/19/4 198/19/4 197/20/4
usemtl 
f 143/91/1 64/92/1 62/93/1 151/94/1 153/95/1 163/96/1 156/97/1 160/98/1 159/99/1 157/100/1 158/101/1 162/102/1 155/103/1 161/104/1 152/105/1
f 151/94/1 62/93/1 59/106/1 57/107/1 64/92/1 143/91/1 144/108/1 145/109/1 142/110/1 146/111/1 139/112/1 140/113/1 136/114/1 134/115/1 137/116/1 132/117/1 131/118/1 133/119/1 138/120/1 135/121/1 147/122/1 141/123/1 148/124/1 150/125/1 149/126/1 154/127/1
f 184/128/5 63/129/5 58/130/5 60/131/5 61/132/5 177/133/5 176/134/5 178/135/5 175/136/5 179/137/5 172/138/5 174/139/5 180/140/5 168/141/5 171/142/5 165/143/5 164/144/5 166/145/5 170/146/5 167/147/5 169/148/5 173/149/5 181/150/5 183/151/5 182/152/5 187/153/5
f 177/133/5 61/132/5 63/129/5 184/128/5 186/154/5 194/155/5 188/156/5 195/157/5 191/158/5 190/159/5 192/160/5 193/161/5 189/162/5 196/163/5 185/164/5
f 199/129/6 197/132/6 198/93/6 200/92/6
f 63/129/5 61/132/5 197/132/5 199/129/5
f 62/93/1 64/92/1 200/92/1 198/93/1
